<?xml version="1.0" encoding="utf-8"?>
<!-- Generator: Adobe Illustrator 26.0.3, SVG Export Plug-In . SVG Version: 6.00 Build 0)  -->
<svg version="1.1" id="Layer_1" xmlns="http://www.w3.org/2000/svg" xmlns:xlink="http://www.w3.org/1999/xlink" x="0px" y="0px"
	 viewBox="0 0 1280 1280" style="enable-background:new 0 0 1280 1280;" xml:space="preserve">
<style type="text/css">
	.st0{fill:none;stroke:#000000;stroke-miterlimit:10;}
	.st1{fill:#00B188;stroke:#00B188;stroke-miterlimit:10;}
	.st2{fill:none;stroke:#00B188;stroke-miterlimit:10;}
</style>
<line class="st0" x1="413" y1="457.2" x2="412.6" y2="457.2"/>
<line class="st0" x1="642.7" y1="975.5" x2="642.3" y2="975.5"/>
<line class="st0" x1="334.1" y1="279.2" x2="333.9" y2="279.7"/>
<line class="st0" x1="413.1" y1="457.6" x2="413" y2="457.2"/>
<polyline class="st1" points="4.2,975.5 74,828.8 236.4,828.8 166.6,975.5 "/>
<polygon class="st0" points="413.3,457.2 413.1,457.6 413,457.2 "/>
<path class="st0" d="M954.1,603.9L954.1,603.9l-0.9,0C953.5,603.9,953.8,603.9,954.1,603.9z"/>
<polygon class="st1" points="642.3,975.5 481.9,975.5 329.9,632.5 252.1,457.2 412.6,457.2 412.9,458 577.3,828.8 "/>
<path class="st1" d="M1177,716.3c0,143.1-147,259.2-328.4,259.2h-31.2l-66.5-146.7h97.8c74.6,0,135.1-50.4,135.1-112.5
	s-60.5-112.5-135.1-112.5c-0.3,0-0.6,0-0.9,0h-199l-66.5-146.7h266.4C1030,457.2,1177,573.2,1177,716.3z"/>
<path class="st0" d="M954.1,603.9L954.1,603.9l-0.9,0C953.5,603.9,953.8,603.9,954.1,603.9z"/>
<path class="st0" d="M954.1,603.9L954.1,603.9l-0.9,0C953.5,603.9,953.8,603.9,954.1,603.9z"/>
<line class="st0" x1="428.5" y1="397.9" x2="428.2" y2="397.3"/>
<line class="st0" x1="507.8" y1="272.5" x2="507.5" y2="271.8"/>
<line class="st0" x1="796" y1="401" x2="795.1" y2="401"/>
<polyline class="st0" points="928,667.6 928,667.6 928,667.2 "/>
<line class="st0" x1="928" y1="398.6" x2="928" y2="398.6"/>
<line class="st2" x1="166.6" y1="975.5" x2="4.2" y2="975.5"/>
</svg>
